<svg width="48" height="48" viewBox="0 0 48 48" fill="none" xmlns="http://www.w3.org/2000/svg">
<path d="M44.6963 26.9093C47.5695 21.4358 41.7293 17.64 34.0935 15.7785C34.668 14.4727 34.8345 12.7635 33.2145 11.1315C31.137 9.04275 32.5177 6 32.5177 6C32.5177 6 28.1573 10.0223 30.9105 12.7958C31.926 13.818 32.4548 14.7157 32.7075 15.4665C30.5996 15.032 28.4651 14.7379 26.3183 14.586C26.9595 12.843 27.0218 10.6537 25.0013 8.5575C22.2353 5.68425 24.0773 1.5 24.0773 1.5C24.0773 1.5 18.2625 7.0305 21.9338 10.8435C23.274 12.234 23.9798 13.458 24.3218 14.484C22.0463 14.4158 19.8563 14.5155 17.9108 14.7877C18.1425 13.6665 17.949 12.3773 16.7123 11.1322C14.6348 9.0435 16.0163 6 16.0163 6C16.0163 6 11.655 10.0223 14.409 12.7958C15.2715 13.6643 15.777 14.4397 16.0673 15.1155C15.7388 15.1875 15.42 15.2655 15.1133 15.3502C5.63175 14.463 1.49625 16.422 3.3855 20.265C0.0885024 23.562 1.3275 27.3247 5.45325 30.204C7.60575 39.0697 8.16 46.5 24.372 46.5C38.838 46.5 40.8368 40.5825 42.6285 33.009C48.0045 31.9388 46.8593 29.3618 44.6963 26.9093ZM43.356 26.0235C41.5553 29.8635 33.7402 32.754 24.372 32.754C15.0045 32.754 7.1895 29.8635 5.388 26.0235C5.34975 25.9095 5.313 25.791 5.27625 25.6755C6.13425 23.499 8.92275 21.6105 12.8393 20.346C11.919 21.2355 11.7278 22.5637 14.1495 23.0295C14.8425 23.163 16.7453 22.701 15.9135 20.34C15.7973 20.01 15.6075 19.7887 15.3743 19.6553C18.0653 19.0395 21.12 18.6847 24.372 18.6847C24.7365 18.6847 25.0943 18.6975 25.4535 18.7057C23.577 19.3717 22.0463 21.4237 25.878 22.029C26.724 22.1625 29.0468 21.7005 28.0313 19.3395C27.9425 19.1291 27.8003 18.9455 27.6188 18.807C31.209 19.071 34.4618 19.7625 37.0913 20.7593C34.779 20.6303 32.214 22.0553 36.3218 24.0615C37.203 24.492 39.8805 24.8873 39.5123 22.2803C39.4856 22.0919 39.4191 21.9114 39.3173 21.7507C41.4195 22.8585 42.8858 24.2018 43.467 25.6755L43.356 26.0235Z" fill="white"/>
<path d="M19.3777 27.6308C21.8025 27.6308 23.4195 25.4385 24.6862 24.5805C26.4562 23.3805 30.9067 22.9125 26.9872 22.818C23.2695 22.7288 18.6795 25.7468 15.612 25.539C10.533 25.194 15.735 27.6308 19.3777 27.6308Z" fill="white"/>
<path d="M24.6172 32.1098C25.4737 32.2748 27.828 31.7033 26.7982 28.7835C25.635 25.4798 18.5932 30.9503 24.6172 32.1098Z" fill="white"/>
<path d="M11.2853 24.8835C10.467 23.7285 9.28051 22.2638 8.78926 23.0265C8.11801 24.0698 7.90651 26.169 8.39401 26.262C12.216 26.9948 11.9483 25.8188 11.2853 24.8835Z" fill="white"/>
<path d="M33.504 25.3515C34.1933 24.498 32.817 22.4437 31.9335 22.803C30.5505 23.3655 29.7532 22.9845 29.1457 23.838C27.723 25.8367 32.5673 26.5102 33.504 25.3515Z" fill="white"/>
<path d="M33.0735 27.7972C32.082 27.36 32.316 28.8247 30.8513 27.6495C29.8028 26.808 27.5468 28.9305 29.0348 30.372C30.6908 31.9762 31.1318 30.4515 31.8278 30.5797C33.2423 30.84 35.6745 28.9447 33.0735 27.7972Z" fill="white"/>
<path d="M16.587 28.2983C16.0702 27.7898 15.3772 28.4033 14.9857 29.1518C14.598 28.9613 14.2822 28.917 14.2822 28.917C13.986 28.0725 13.1047 27.4935 13.1047 27.4935C13.1047 27.4935 13.185 28.3718 13.3012 28.8C12.3277 28.4543 12.2977 26.7143 12.2977 26.7143C12.2977 26.7143 11.6445 27.105 11.7037 27.7688C10.632 26.904 9.71924 27.3083 9.71924 27.3083C9.71924 27.3083 11.079 28.0733 11.2665 28.5893C10.503 28.6485 10.0575 28.9125 9.79799 29.5268C9.79874 29.532 11.307 28.809 12.423 29.331C11.9827 29.691 12.2017 30.5903 12.2017 30.5903C13.2405 29.4893 14.07 29.607 14.7337 29.8043C14.6535 30.141 14.6587 30.4485 14.8012 30.6353C15.9525 32.1488 19.9627 31.8083 21.0397 30.6893C22.344 29.3355 18.72 30.3975 16.587 28.2983Z" fill="white"/>
<path d="M19.4197 22.5975C19.0785 23.283 19.0762 23.8005 19.4707 24.339C19.476 24.3405 19.6297 22.6755 20.6505 21.9855C20.7337 22.548 21.6172 22.821 21.6172 22.821C20.9107 20.319 22.9732 20.1885 22.9635 19.2907C21.87 19.383 21.249 20.178 21.249 20.178C20.3722 19.9987 19.422 20.457 19.422 20.457C19.422 20.457 20.2177 20.8387 20.6445 20.9595C19.848 21.6172 18.339 20.7495 18.339 20.7495C18.339 20.7495 18.339 21.5115 18.939 21.8002C17.6467 22.2765 17.5252 23.2665 17.5252 23.2665C17.5252 23.2665 18.8797 22.4932 19.4197 22.5975Z" fill="white"/>
<path d="M38.583 26.0145C38.8935 25.425 38.4405 24.8123 38.4405 24.8123C38.4405 24.8123 37.7438 26.4075 36.7125 26.3528C36.984 26.0018 37.3965 25.2218 37.3965 25.2218C37.3965 25.2218 36.36 25.419 35.7615 26.0843C35.7615 26.0843 34.7895 25.815 33.8565 26.391C34.383 27.1185 36.1185 25.9958 37.0388 28.4273C37.0388 28.4273 37.5863 27.6825 37.3185 27.1808C38.55 27.1275 39.6645 28.374 39.6683 28.3695C39.6638 27.702 39.3548 27.288 38.6715 26.94C39.0435 26.5358 40.593 26.352 40.593 26.352C40.593 26.352 39.906 25.6283 38.583 26.0145Z" fill="white"/>
</svg>
