<svg width="566" height="304" viewBox="0 0 566 304" fill="none" xmlns="http://www.w3.org/2000/svg">
<g clip-path="url(#clip0)">
<path d="M168.387 250.304C166.441 268.911 159.286 285.935 151.652 302.333C151.4 302.892 151.14 303.442 150.874 304H71.5384C69.9339 303.492 68.3501 302.933 66.7729 302.333C57.8121 299.004 49.3525 293.924 41.7228 287.293C12.5352 261.628 1.30382 213.132 6.37678 169.677C9.53117 142.679 19.2397 115.115 38.145 100.574C48.1269 92.8834 60.9488 90.3836 72.4396 93.2417C72.7403 93.3084 73.0406 93.3917 73.3477 93.4667C83.2339 96.1832 92.0413 102.933 97.0529 113.807C106.065 133.347 100.699 157.553 96.2678 179.302C91.8503 201.05 89.4537 227.081 102.276 243.121C98.0427 227.914 102.221 209.774 112.333 199.492C119.973 191.734 130.61 188.826 140.312 191.234C141.24 191.476 142.155 191.751 143.057 192.084C145.235 192.862 147.335 193.936 149.317 195.284C164.44 205.591 170.565 229.331 168.387 250.304Z" fill="#F2F2F2"/>
<path d="M121.345 302.333C123.543 302.958 125.749 303.508 127.968 304H115.972C114.401 303.483 112.838 302.933 111.288 302.333C107.881 301.034 104.527 299.542 101.224 297.859C87.9791 291.076 75.7783 280.893 66.5475 267.345C62.0331 260.78 58.3466 253.43 55.6099 245.538C52.6423 236.618 50.7564 227.217 50.0116 217.632C48.3387 197.967 50.0456 177.76 53.2339 158.445C56.5243 138.426 61.8357 118.982 69.0465 100.558C69.9136 98.3498 70.8103 96.1555 71.7365 93.9751C71.8002 93.7956 71.8967 93.6362 72.0185 93.5092C72.1404 93.3821 72.2844 93.2906 72.4396 93.2418C72.7548 93.1673 73.0813 93.2482 73.3477 93.4668C73.6674 93.6907 73.9045 94.0559 74.01 94.487C74.1154 94.9181 74.0812 95.3821 73.9144 95.7833C66.4797 113.478 60.844 132.216 57.1324 151.579C53.5003 170.469 51.4384 190.234 52.1415 209.658C52.8106 227.806 56.6957 245.655 65.5098 260.495C73.5594 274.044 84.6744 284.726 96.9709 292.001C104.754 296.546 112.93 300.011 121.345 302.333Z" fill="white"/>
<path d="M147.672 304H144.135C143.739 303.45 143.357 302.892 142.981 302.333C134.926 290.388 129.468 276.156 127.114 260.953C124.255 241.982 126.479 222.391 133.457 205.083C135.404 200.229 137.697 195.595 140.312 191.234C141.24 191.476 142.155 191.751 143.056 192.084C136.18 203.203 131.555 216.148 129.558 229.864C127.777 242.716 128.369 255.892 131.292 268.429C134.214 280.967 139.393 292.55 146.45 302.333C146.846 302.892 147.255 303.45 147.672 304Z" fill="white"/>
<path d="M466.269 289.829C466.782 294.739 468.671 299.232 470.685 303.56C470.752 303.708 470.821 303.853 470.891 304H491.829C492.252 303.866 492.67 303.719 493.087 303.56C495.452 302.681 497.684 301.341 499.698 299.591C507.401 292.817 510.365 280.018 509.026 268.549C508.194 261.424 505.632 254.149 500.642 250.312C497.933 248.298 494.7 247.606 491.591 248.376C491.512 248.394 491.433 248.416 491.352 248.436C490.057 248.741 488.831 249.377 487.753 250.302C486.674 251.228 485.769 252.421 485.095 253.804C482.717 258.961 484.133 265.35 485.302 271.089C486.468 276.829 487.101 283.699 483.717 287.933C484.213 286.162 484.313 284.263 484.009 282.429C483.704 280.595 483.004 278.894 481.982 277.499C480.96 276.105 479.652 275.068 478.192 274.495C476.733 273.922 475.175 273.833 473.678 274.239C473.433 274.302 473.192 274.375 472.954 274.463C472.379 274.668 471.825 274.952 471.302 275.307C467.31 278.028 465.694 284.293 466.269 289.829Z" fill="#F2F2F2"/>
<path d="M478.684 303.56C478.104 303.725 477.522 303.87 476.936 304H480.102C480.517 303.864 480.929 303.719 481.338 303.56C482.238 303.217 483.123 302.823 483.994 302.379C487.529 300.628 490.668 297.866 493.146 294.326C494.337 292.594 495.31 290.654 496.033 288.571C496.816 286.217 497.314 283.735 497.51 281.206C497.869 275.976 497.583 270.711 496.66 265.585C495.791 260.302 494.39 255.17 492.486 250.308C492.258 249.725 492.021 249.146 491.777 248.571C491.76 248.523 491.734 248.481 491.702 248.448C491.67 248.414 491.632 248.39 491.591 248.377C491.508 248.357 491.422 248.379 491.351 248.436C491.267 248.496 491.204 248.592 491.177 248.706C491.149 248.82 491.158 248.942 491.202 249.048C493.164 253.718 494.651 258.663 495.631 263.773C496.64 268.786 497.083 273.943 496.948 279.101C496.876 283.899 495.649 288.565 493.42 292.518C491.252 296.078 488.401 298.934 485.117 300.833C483.063 302.033 480.905 302.947 478.684 303.56Z" fill="white"/>
<path d="M471.736 304H472.67C472.774 303.855 472.875 303.708 472.974 303.56C475.101 300.408 476.542 296.651 477.164 292.639C477.918 287.632 477.331 282.462 475.489 277.894C474.975 276.613 474.37 275.39 473.679 274.239C473.434 274.303 473.193 274.375 472.955 274.463C474.77 277.398 475.991 280.814 476.518 284.434C476.988 287.826 476.832 291.303 476.061 294.612C475.289 297.921 473.922 300.978 472.059 303.56C471.954 303.707 471.846 303.855 471.736 304Z" fill="white"/>
<path d="M277.546 177.076H212.013L211.318 152.486C211.288 151.42 211.448 150.359 211.786 149.375C212.124 148.392 212.633 147.509 213.278 146.789C213.922 146.068 214.687 145.527 215.519 145.202C216.351 144.876 217.231 144.775 218.099 144.905L256.234 150.603H256.239C261.893 150.622 267.31 153.375 271.304 158.259C275.297 163.143 277.542 169.76 277.546 176.659V177.076Z" fill="#F50004"/>
<path d="M248.338 89.8503H202.633C202.025 89.8501 201.423 89.9961 200.861 90.2799C200.3 90.5637 199.789 90.9798 199.359 91.5043C198.93 92.0289 198.589 92.6517 198.356 93.3371C198.124 94.0225 198.004 94.7572 198.004 95.499V151.28C198.004 152.021 198.124 152.756 198.356 153.441C198.589 154.127 198.93 154.75 199.359 155.274C199.789 155.799 200.3 156.215 200.861 156.499C201.423 156.782 202.025 156.928 202.633 156.928H248.338C248.946 156.928 249.548 156.783 250.109 156.499C250.671 156.215 251.181 155.799 251.611 155.274C252.041 154.75 252.382 154.127 252.614 153.442C252.847 152.756 252.967 152.021 252.966 151.28V95.499C252.967 94.7572 252.847 94.0225 252.614 93.3371C252.382 92.6517 252.041 92.0289 251.611 91.5043C251.181 90.9798 250.671 90.5637 250.109 90.2799C249.548 89.9961 248.946 89.8501 248.338 89.8503Z" fill="#CCCCCC"/>
<path d="M238.045 131.561L216.465 136.69C215.185 136.992 213.859 136.663 212.777 135.773C211.696 134.884 210.948 133.507 210.698 131.946L209.039 121.55C208.791 119.988 209.061 118.369 209.79 117.05C210.519 115.73 211.646 114.818 212.926 114.512L234.506 109.383C235.786 109.081 237.112 109.41 238.194 110.3C239.275 111.189 240.023 112.565 240.274 114.127L241.932 124.523C242.18 126.085 241.91 127.703 241.181 129.023C240.453 130.342 239.325 131.255 238.045 131.561Z" fill="#3F3D56"/>
<path d="M233.728 119.279L217.259 123.193C216.957 123.264 216.645 123.187 216.391 122.978C216.136 122.768 215.96 122.444 215.902 122.077C215.843 121.709 215.906 121.328 216.078 121.018C216.25 120.707 216.515 120.492 216.816 120.421L233.286 116.507C233.587 116.435 233.899 116.513 234.154 116.722C234.408 116.931 234.584 117.256 234.643 117.623C234.701 117.991 234.638 118.372 234.466 118.682C234.295 118.993 234.029 119.208 233.728 119.279Z" fill="white"/>
<path d="M230.526 125.075L222.008 127.1C221.707 127.172 221.395 127.094 221.14 126.885C220.886 126.675 220.71 126.351 220.651 125.984C220.592 125.616 220.656 125.235 220.827 124.924C220.999 124.614 221.264 124.399 221.566 124.328L230.083 122.303C230.233 122.268 230.386 122.268 230.535 122.305C230.684 122.342 230.825 122.415 230.951 122.518C231.077 122.622 231.185 122.755 231.269 122.909C231.353 123.064 231.411 123.237 231.44 123.419C231.469 123.601 231.469 123.789 231.438 123.97C231.408 124.152 231.349 124.325 231.264 124.479C231.179 124.632 231.07 124.764 230.943 124.867C230.817 124.969 230.675 125.04 230.526 125.075Z" fill="white"/>
<path d="M252.966 95.499V102.913H198.004V95.499C198.004 94.7572 198.124 94.0225 198.356 93.3371C198.589 92.6517 198.93 92.0289 199.359 91.5044C199.789 90.9798 200.3 90.5637 200.861 90.2799C201.423 89.9961 202.025 89.8501 202.633 89.8503H248.338C248.946 89.8501 249.548 89.9961 250.109 90.2799C250.671 90.5637 251.181 90.9798 251.611 91.5044C252.041 92.0289 252.382 92.6517 252.614 93.3371C252.847 94.0225 252.967 94.7572 252.966 95.499Z" fill="#B3B3B3"/>
<path d="M362.718 105.235C362.401 103.985 361.863 102.835 361.142 101.866C360.421 100.897 359.535 100.133 358.546 99.6272C357.557 99.1215 356.489 98.8867 355.418 98.9392C354.347 98.9917 353.298 99.3302 352.345 99.931L289.466 72.3977L286.697 91.5688L349.375 112.605C350.309 114.491 351.776 115.894 353.5 116.548C355.224 117.202 357.085 117.061 358.729 116.153C360.374 115.244 361.688 113.631 362.424 111.619C363.159 109.606 363.264 107.335 362.718 105.235Z" fill="#FFB8B8"/>
<path opacity="0.2" d="M362.718 105.235C362.401 103.985 361.863 102.835 361.142 101.866C360.421 100.897 359.535 100.133 358.546 99.6272C357.557 99.1215 356.489 98.8867 355.418 98.9392C354.347 98.9917 353.298 99.3302 352.345 99.931L289.466 72.3977L286.697 91.5688L349.375 112.605C350.309 114.491 351.776 115.894 353.5 116.548C355.224 117.202 357.085 117.061 358.729 116.153C360.374 115.244 361.688 113.631 362.424 111.619C363.159 109.606 363.264 107.335 362.718 105.235Z" fill="black"/>
<path d="M300.627 75.891L294.689 94.8229C294.52 95.3616 294.258 95.8495 293.921 96.2534C293.583 96.6573 293.179 96.9677 292.734 97.1635C292.29 97.3592 291.816 97.4358 291.345 97.3879C290.874 97.34 290.417 97.1688 290.005 96.8859L275.575 86.9732C273.322 85.9024 271.508 83.7851 270.533 81.0853C269.557 78.3854 269.498 75.3235 270.369 72.5707C271.24 69.818 272.969 67.599 275.179 66.4003C277.388 65.2016 279.896 65.121 282.154 66.1761L298.269 70.5379C298.73 70.663 299.164 70.908 299.54 71.2561C299.917 71.6042 300.228 72.0474 300.452 72.5554C300.676 73.0634 300.807 73.6243 300.837 74.1999C300.868 74.7755 300.796 75.3523 300.627 75.891Z" fill="#F50004"/>
<path d="M367.668 122.765L345.137 135.263L348.095 148.855C353.807 175.101 355.323 202.444 352.56 229.39L369.033 233.589L382.689 191.092L377.909 142.763L367.668 122.765Z" fill="#F50004"/>
<path d="M411.876 185.676C397.072 185.676 385.008 198.81 384.423 215.257H439.328C438.743 198.81 426.679 185.676 411.876 185.676Z" fill="#3F3D56"/>
<path d="M400.351 188.51C399.581 114.268 364.936 121.098 364.936 121.098C364.936 121.098 365.584 144.207 365.895 144.926C387.972 195.904 351.537 255.669 305.158 244.675C304.284 244.467 303.444 244.257 302.638 244.044C296.761 242.546 291.573 238.373 288.128 232.373C284.683 226.373 283.24 218.996 284.092 211.744C288.661 166.968 265.938 167.761 265.938 167.761H232.711L215.455 148.807C214.846 148.138 214.112 147.662 213.317 147.419C212.522 147.176 211.691 147.175 210.895 147.415C210.1 147.655 209.365 148.129 208.754 148.796C208.144 149.463 207.676 150.303 207.393 151.241L205.173 158.595C205.173 158.595 172.401 162.761 175.132 201.924H185.264C185.24 203.037 185.276 204.151 185.373 205.257L260.988 204.507C265.421 204.463 269.333 208.846 269.351 214.256C269.356 215.573 269.143 216.878 268.725 218.092C268.306 219.306 267.692 220.405 266.918 221.322C266.144 222.24 265.226 222.957 264.219 223.432C263.213 223.907 262.138 224.129 261.06 224.085L248.869 223.589C245.114 244.004 254.331 257.753 264.487 266.398C274.049 274.419 285.395 278.673 296.998 278.584H330.116C373.129 278.584 380.639 234.422 380.639 234.422C403.17 222.756 400.351 188.51 400.351 188.51Z" fill="#3F3D56"/>
<path d="M409.828 302.75C431.038 302.75 448.232 281.765 448.232 255.879C448.232 229.992 431.038 209.008 409.828 209.008C388.617 209.008 371.423 229.992 371.423 255.879C371.423 281.765 388.617 302.75 409.828 302.75Z" fill="#3F3D56"/>
<path d="M409.828 267.367C415.026 267.367 419.241 262.224 419.241 255.879C419.241 249.534 415.026 244.391 409.828 244.391C404.629 244.391 400.415 249.534 400.415 255.879C400.415 262.224 404.629 267.367 409.828 267.367Z" fill="white"/>
<path d="M215.927 302.75C240.342 302.75 260.135 278.594 260.135 248.796C260.135 218.998 240.342 194.842 215.927 194.842C191.511 194.842 171.718 218.998 171.718 248.796C171.718 278.594 191.511 302.75 215.927 302.75Z" fill="#3F3D56"/>
<path d="M215.927 262.021C221.911 262.021 226.762 256.1 226.762 248.797C226.762 241.493 221.911 235.572 215.927 235.572C209.943 235.572 205.092 241.493 205.092 248.797C205.092 256.1 209.943 262.021 215.927 262.021Z" fill="white"/>
<path d="M345.201 138.957L337.094 112.084C336.672 110.684 336.48 109.195 336.528 107.704C336.577 106.213 336.866 104.748 337.379 103.393C337.892 102.038 338.618 100.82 339.517 99.8073C340.415 98.795 341.468 98.0085 342.616 97.493L365.857 87.051C367.876 86.1436 370.022 85.7304 372.171 85.835C374.321 85.9397 376.433 86.5602 378.387 87.661C380.34 88.7619 382.097 90.3215 383.557 92.2509C385.016 94.1804 386.15 96.4418 386.894 98.906C387.564 101.118 387.906 103.458 387.905 105.816C387.896 108.81 387.341 111.765 386.279 114.464C385.218 117.164 383.677 119.541 381.768 121.423C380.39 122.773 378.84 123.839 377.18 124.58L345.201 138.957Z" fill="#3F3D56"/>
<path d="M387.564 105.816C387.562 108.749 387.021 111.645 385.981 114.289C384.941 116.934 383.429 119.261 381.555 121.098C378.68 120.172 376.005 118.494 373.716 116.179C371.426 113.865 369.577 110.969 368.297 107.694C367.017 104.419 366.337 100.843 366.304 97.2149C366.27 93.5866 366.885 89.993 368.105 86.684C370.447 86.0625 372.873 86.0889 375.205 86.7615C377.538 87.434 379.717 88.7355 381.583 90.5705C383.449 92.4054 384.955 94.7272 385.99 97.3653C387.025 100.003 387.563 102.891 387.564 105.816Z" fill="#F50004"/>
<path d="M180.935 207.341C186.214 207.341 190.494 200.999 190.494 193.175C190.494 185.352 186.214 179.01 180.935 179.01C175.656 179.01 171.377 185.352 171.377 193.175C171.377 200.999 175.656 207.341 180.935 207.341Z" fill="#F50004"/>
<path d="M307.286 243.318H315.657L319.639 216.823L307.285 216.824L307.286 243.318Z" fill="#FFB8B8"/>
<path d="M305.151 239.983L321.635 239.982H321.636C323.015 239.982 324.381 240.314 325.656 240.958C326.93 241.603 328.089 242.547 329.064 243.738C330.04 244.928 330.813 246.342 331.341 247.897C331.869 249.453 332.141 251.12 332.141 252.804V253.22L305.151 253.222L305.151 239.983Z" fill="#2F2E41"/>
<path d="M317.002 232.444C316.904 232.444 316.806 232.438 316.708 232.427L305.124 231.397C304.656 231.344 304.203 231.161 303.802 230.861C303.401 230.561 303.062 230.152 302.811 229.667C302.559 229.181 302.403 228.632 302.353 228.061C302.303 227.49 302.361 226.913 302.523 226.373L318.026 183.865C318.137 183.486 318.182 183.083 318.159 182.681C318.136 182.28 318.045 181.889 317.892 181.532C317.74 181.172 317.526 180.855 317.266 180.602C317.006 180.349 316.705 180.167 316.383 180.066C309.093 177.74 290.389 171.548 274.198 164.302C267.261 161.198 262.892 156.712 261.212 150.969C258.998 143.397 262.274 136.491 262.414 136.202L262.524 135.975L277.76 137.665L294.276 139.379L330.472 163.067C333.504 165.069 335.808 168.391 336.924 172.373C338.04 176.355 337.886 180.703 336.492 184.552L319.805 230.222C319.564 230.883 319.171 231.445 318.673 231.839C318.176 232.234 317.595 232.444 317.002 232.444Z" fill="#2F2E41"/>
<path d="M280.41 53.5633C289.671 53.5633 297.178 44.4004 297.178 33.0975C297.178 21.7945 289.671 12.6316 280.41 12.6316C271.148 12.6316 263.641 21.7945 263.641 33.0975C263.641 44.4004 271.148 53.5633 280.41 53.5633Z" fill="#FFB8B8"/>
<path d="M302.507 245.818H310.877L314.86 219.323L302.505 219.323L302.507 245.818Z" fill="#FFB8B8"/>
<path d="M300.372 242.483L316.856 242.482H316.857C318.236 242.482 319.602 242.813 320.877 243.458C322.151 244.102 323.309 245.046 324.285 246.237C325.26 247.427 326.034 248.841 326.562 250.396C327.09 251.952 327.362 253.619 327.362 255.303V255.719L300.372 255.721L300.372 242.483Z" fill="#2F2E41"/>
<path d="M312.223 234.944C312.125 234.944 312.027 234.938 311.929 234.927L300.345 233.897C299.877 233.844 299.425 233.66 299.024 233.36C298.622 233.06 298.283 232.652 298.032 232.166C297.781 231.681 297.624 231.132 297.574 230.561C297.524 229.99 297.583 229.412 297.745 228.873L313.247 186.364C313.358 185.985 313.403 185.582 313.38 185.181C313.357 184.78 313.266 184.388 313.113 184.032C312.961 183.671 312.747 183.354 312.487 183.102C312.227 182.849 311.926 182.666 311.604 182.566C304.314 180.24 285.61 174.047 269.419 166.802C262.483 163.697 258.114 159.211 256.434 153.468C254.22 145.896 257.496 138.991 257.636 138.701L257.746 138.474L272.981 140.164L289.498 141.879L325.692 165.567C328.725 167.568 331.029 170.891 332.145 174.872C333.26 178.854 333.106 183.203 331.713 187.052L315.026 232.721C314.785 233.383 314.392 233.945 313.894 234.339C313.397 234.733 312.816 234.943 312.223 234.944Z" fill="#2F2E41"/>
<path d="M285.581 65.1685L267.83 57.6691C267.83 57.6691 256.687 68.1183 262.04 94.04C264.835 107.417 264.021 121.537 259.719 134.304C259.201 135.883 258.604 137.422 257.931 138.913C257.931 138.913 277.73 168.077 296.164 146.412L288.995 104.332C288.995 104.332 300.26 76.4176 285.581 65.1685Z" fill="#F50004"/>
<path d="M282.491 54.2594C280.105 49.8995 278.221 43.854 280.849 39.7057C283.442 35.6109 288.558 36.2141 292.531 34.4022C298.064 31.8785 301.273 23.9453 300.272 16.8406C299.271 9.73587 294.598 3.84627 289.031 1.43644C283.464 -0.973398 277.187 -0.189664 271.735 2.58541C265.024 6.00155 259.267 12.6099 256.853 20.9808C254.439 29.3518 255.73 39.4027 260.738 45.8369C266.107 52.7349 274.533 54.5733 282.328 54.4617" fill="#2F2E41"/>
<path d="M266.892 17.0686C263.885 20.0566 259.297 18.7295 256.068 16.1071C252.84 13.4848 250.221 9.75074 246.728 7.69473C240.57 4.07006 233.125 6.47963 227.132 10.4946C221.139 14.5096 215.826 20.0563 209.495 23.2071C203.165 26.3578 195.087 26.5135 190.293 20.5642C189.114 24.7354 189.017 29.2493 190.017 33.4898C191.017 37.7304 193.065 41.4911 195.88 44.259C198.696 47.0268 202.143 48.667 205.751 48.9556C209.359 49.2442 212.952 48.1673 216.04 45.8718C222.976 40.7152 226.807 29.9033 234.587 27.0572C238.892 25.4822 243.515 26.7507 247.866 28.1246C252.217 29.4985 256.754 30.9831 261.145 29.8135C265.536 28.6438 269.643 23.828 269.084 18.3854L266.892 17.0686Z" fill="#2F2E41"/>
<path d="M361.884 104.401C361.443 103.208 360.792 102.148 359.979 101.295C359.166 100.442 358.209 99.8174 357.177 99.4646C356.144 99.1117 355.061 99.0394 354.003 99.2529C352.945 99.4663 351.938 99.9602 351.054 100.7L285.872 82.8455L285.062 102.287L349.388 113.724C350.505 115.455 352.103 116.626 353.88 117.016C355.657 117.405 357.489 116.985 359.029 115.836C360.569 114.687 361.711 112.888 362.237 110.781C362.763 108.673 362.637 106.403 361.884 104.401Z" fill="#FFB8B8"/>
<path d="M297.3 84.6315L293.322 104.313C293.209 104.873 292.998 105.397 292.704 105.848C292.41 106.3 292.04 106.669 291.618 106.93C291.197 107.191 290.734 107.339 290.262 107.362C289.79 107.385 289.319 107.284 288.882 107.066L273.559 99.4016C271.213 98.68 269.198 96.8522 267.955 94.3194C266.712 91.7865 266.344 88.7554 266.93 85.8912C267.516 83.0269 269.01 80.5635 271.082 79.0415C273.155 77.5194 275.638 77.0631 277.986 77.7725L294.419 79.6745C294.889 79.7291 295.345 79.9069 295.754 80.1956C296.163 80.4844 296.516 80.8773 296.79 81.3477C297.063 81.8182 297.25 82.355 297.338 82.9216C297.426 83.4883 297.414 84.0715 297.3 84.6315V84.6315Z" fill="#F50004"/>
<path d="M354.354 119.848C356.994 119.848 359.133 117.237 359.133 114.015C359.133 110.794 356.994 108.182 354.354 108.182C351.715 108.182 349.575 110.794 349.575 114.015C349.575 117.237 351.715 119.848 354.354 119.848Z" fill="#F50004"/>
<path d="M566 303.166C565.999 303.387 565.927 303.599 565.799 303.755C565.672 303.911 565.498 303.999 565.317 304H0.68275C0.501674 304 0.328013 303.912 0.199972 303.756C0.0719319 303.599 0 303.387 0 303.166C0 302.945 0.0719319 302.733 0.199972 302.577C0.328013 302.421 0.501674 302.333 0.68275 302.333H565.317C565.498 302.334 565.672 302.422 565.799 302.578C565.927 302.734 565.999 302.946 566 303.166Z" fill="#3F3D56"/>
</g>
<defs>
<clipPath id="clip0">
<rect width="566" height="304" fill="white"/>
</clipPath>
</defs>
</svg>
