<svg width="48" height="48" viewBox="0 0 48 48" fill="none" xmlns="http://www.w3.org/2000/svg">
<path d="M30 27.54C29.3748 28.1026 28.8748 28.7905 28.5326 29.5588C28.1904 30.3272 28.0135 31.1589 28.0135 32C28.0135 32.8411 28.1904 33.6728 28.5326 34.4412C28.8748 35.2095 29.3748 35.8974 30 36.46V40C30 41.0609 29.5786 42.0783 28.8284 42.8284C28.0783 43.5786 27.0609 44 26 44H22C20.9391 44 19.9217 43.5786 19.1716 42.8284C18.4214 42.0783 18 41.0609 18 40V36.46C18.6252 35.8974 19.1252 35.2095 19.4674 34.4412C19.8096 33.6728 19.9865 32.8411 19.9865 32C19.9865 31.1589 19.8096 30.3272 19.4674 29.5588C19.1252 28.7905 18.6252 28.1026 18 27.54V18C19.9931 14.9881 21.2974 11.5737 21.82 8H20V4H28V8H26.18C26.7026 11.5737 28.0069 14.9881 30 18V27.54Z" fill="white"/>
</svg>
