<svg width="34" height="34" viewBox="0 0 34 34" fill="none" xmlns="http://www.w3.org/2000/svg">
<path d="M29.2188 3.71875H4.78125C4.19355 3.71875 3.71875 4.19355 3.71875 4.78125V29.2188C3.71875 29.8064 4.19355 30.2812 4.78125 30.2812H29.2188C29.8064 30.2812 30.2812 29.8064 30.2812 29.2188V4.78125C30.2812 4.19355 29.8064 3.71875 29.2188 3.71875ZM28.1562 28.1562H22.0436V19.9949H25.4967L26.0146 15.9873H22.0436V13.4273C22.0436 12.2652 22.3656 11.475 24.0291 11.475H26.1508V7.88906C25.7822 7.83926 24.5238 7.72969 23.0563 7.72969C19.9949 7.72969 17.8998 9.59902 17.8998 13.0289V15.984H14.44V19.9916H17.9031V28.1562H5.84375V5.84375H28.1562V28.1562Z" fill="white"/>
</svg>
