<svg width="169" height="100" viewBox="0 0 169 100" fill="none" xmlns="http://www.w3.org/2000/svg">
<rect width="169" height="100" rx="15" fill="#F50004"/>
<path d="M86 46C95.389 46 103 38.941 103 29H69C69 38.941 76.611 46 86 46Z" stroke="white" stroke-width="4"/>
<path d="M92 29C92 23.477 87.747 19 82.5 19C77.253 19 73 23.477 73 29" stroke="white" stroke-width="4"/>
<path d="M101 29C101 25.686 98.234 23 94.822 23C93.379 23 92.052 23.48 91 24.286" stroke="white" stroke-width="4"/>
<path d="M95 23L98 13" stroke="white" stroke-width="4" stroke-linecap="round"/>
<path d="M100 26L104 19" stroke="white" stroke-width="4" stroke-linecap="round"/>
<path d="M80 45L78 51H94L92 45" stroke="white" stroke-width="4" stroke-linecap="round" stroke-linejoin="round"/>
<path d="M56.937 79.0796C56.7987 80.992 56.0907 82.4976 54.813 83.5962C53.5435 84.6948 51.867 85.2441 49.7837 85.2441C47.505 85.2441 45.7106 84.4792 44.4004 82.9492C43.0983 81.4111 42.4473 79.3034 42.4473 76.626V75.5396C42.4473 73.8306 42.7484 72.325 43.3506 71.0229C43.9528 69.7209 44.8114 68.724 45.9263 68.0322C47.0493 67.3324 48.3514 66.9824 49.8325 66.9824C51.8833 66.9824 53.5353 67.5317 54.7886 68.6304C56.0418 69.729 56.7661 71.2712 56.9614 73.2568H53.2993C53.2098 72.1094 52.8883 71.2793 52.335 70.7666C51.7897 70.2458 50.9556 69.9854 49.8325 69.9854C48.6118 69.9854 47.6963 70.4248 47.0859 71.3037C46.4837 72.1745 46.1745 73.5295 46.1582 75.3687V76.7114C46.1582 78.632 46.4471 80.0358 47.0249 80.9229C47.6108 81.8099 48.5304 82.2534 49.7837 82.2534C50.9149 82.2534 51.7572 81.9971 52.3105 81.4844C52.8721 80.9635 53.1935 80.1619 53.2749 79.0796H56.937ZM65.189 85.2441C63.2521 85.2441 61.6733 84.6501 60.4526 83.4619C59.2401 82.2738 58.6338 80.6909 58.6338 78.7134V78.3716C58.6338 77.0451 58.8901 75.861 59.4028 74.8193C59.9155 73.7695 60.6398 72.9639 61.5757 72.4023C62.5197 71.8327 63.5939 71.5479 64.7983 71.5479C66.605 71.5479 68.0251 72.1175 69.0586 73.2568C70.1003 74.3962 70.6211 76.0116 70.6211 78.103V79.5435H62.2104C62.3244 80.4061 62.6662 81.0978 63.2358 81.6187C63.8136 82.1395 64.542 82.3999 65.4209 82.3999C66.7799 82.3999 67.842 81.9076 68.6069 80.9229L70.3403 82.8638C69.8114 83.6125 69.0952 84.1984 68.1919 84.6216C67.2886 85.0366 66.2876 85.2441 65.189 85.2441ZM64.7861 74.4043C64.0863 74.4043 63.5166 74.6403 63.0771 75.1123C62.6458 75.5843 62.3691 76.2598 62.2471 77.1387H67.1543V76.8579C67.138 76.0767 66.9264 75.4744 66.5195 75.0513C66.1126 74.62 65.5348 74.4043 64.7861 74.4043ZM80.0571 75.1001C79.577 75.035 79.1538 75.0024 78.7876 75.0024C77.453 75.0024 76.5781 75.4541 76.1631 76.3574V85H72.6353V71.792H75.9678L76.0654 73.3667C76.7734 72.1541 77.7541 71.5479 79.0073 71.5479C79.3979 71.5479 79.7642 71.6007 80.106 71.7065L80.0571 75.1001ZM87.6011 85.2441C85.6642 85.2441 84.0854 84.6501 82.8647 83.4619C81.6522 82.2738 81.0459 80.6909 81.0459 78.7134V78.3716C81.0459 77.0451 81.3022 75.861 81.8149 74.8193C82.3276 73.7695 83.0519 72.9639 83.9878 72.4023C84.9318 71.8327 86.006 71.5479 87.2104 71.5479C89.0171 71.5479 90.4372 72.1175 91.4707 73.2568C92.5124 74.3962 93.0332 76.0116 93.0332 78.103V79.5435H84.6226C84.7365 80.4061 85.0783 81.0978 85.6479 81.6187C86.2257 82.1395 86.9541 82.3999 87.833 82.3999C89.1921 82.3999 90.2541 81.9076 91.019 80.9229L92.7524 82.8638C92.2235 83.6125 91.5073 84.1984 90.604 84.6216C89.7007 85.0366 88.6997 85.2441 87.6011 85.2441ZM87.1982 74.4043C86.4984 74.4043 85.9287 74.6403 85.4893 75.1123C85.0579 75.5843 84.7812 76.2598 84.6592 77.1387H89.5664V76.8579C89.5501 76.0767 89.3385 75.4744 88.9316 75.0513C88.5247 74.62 87.9469 74.4043 87.1982 74.4043ZM102.701 85C102.538 84.6826 102.42 84.2879 102.347 83.8159C101.493 84.7681 100.382 85.2441 99.0146 85.2441C97.7207 85.2441 96.6465 84.8698 95.792 84.1211C94.9456 83.3724 94.5225 82.4284 94.5225 81.2891C94.5225 79.8893 95.0392 78.8151 96.0728 78.0664C97.1144 77.3177 98.6159 76.9393 100.577 76.9312H102.201V76.1743C102.201 75.564 102.042 75.0757 101.725 74.7095C101.415 74.3433 100.923 74.1602 100.248 74.1602C99.6535 74.1602 99.1855 74.3026 98.8438 74.5874C98.5101 74.8722 98.3433 75.2629 98.3433 75.7593H94.8154C94.8154 74.9943 95.0514 74.2863 95.5234 73.6353C95.9954 72.9842 96.6628 72.4756 97.5254 72.1094C98.388 71.735 99.3564 71.5479 100.431 71.5479C102.058 71.5479 103.348 71.9588 104.3 72.7808C105.261 73.5946 105.741 74.742 105.741 76.2231V81.9482C105.749 83.2015 105.924 84.1496 106.266 84.7925V85H102.701ZM99.7837 82.5464C100.305 82.5464 100.785 82.4325 101.224 82.2046C101.664 81.9686 101.989 81.6553 102.201 81.2646V78.9941H100.882C99.1164 78.9941 98.1764 79.6045 98.0625 80.8252L98.0503 81.0327C98.0503 81.4722 98.2049 81.8343 98.5142 82.1191C98.8234 82.404 99.2466 82.5464 99.7837 82.5464ZM112.174 85H108.634V66.25H112.174V85ZM122.245 81.3501C122.245 80.9188 122.029 80.5811 121.598 80.3369C121.174 80.0846 120.491 79.8608 119.547 79.6655C116.406 79.0063 114.835 77.6717 114.835 75.6616C114.835 74.4897 115.319 73.5132 116.288 72.7319C117.264 71.9425 118.538 71.5479 120.108 71.5479C121.785 71.5479 123.124 71.9425 124.125 72.7319C125.134 73.5213 125.638 74.5467 125.638 75.8081H122.11C122.11 75.3035 121.948 74.8885 121.622 74.563C121.297 74.2293 120.788 74.0625 120.096 74.0625C119.502 74.0625 119.042 74.1968 118.717 74.4653C118.391 74.7339 118.229 75.0757 118.229 75.4907C118.229 75.8813 118.412 76.1987 118.778 76.4429C119.152 76.6789 119.779 76.8864 120.658 77.0654C121.537 77.2363 122.277 77.4316 122.879 77.6514C124.743 78.335 125.675 79.519 125.675 81.2036C125.675 82.408 125.158 83.3846 124.125 84.1333C123.091 84.8739 121.756 85.2441 120.121 85.2441C119.014 85.2441 118.029 85.0488 117.167 84.6582C116.312 84.2594 115.641 83.7183 115.152 83.0347C114.664 82.3429 114.42 81.5983 114.42 80.8008H117.765C117.797 81.4274 118.029 81.9076 118.46 82.2412C118.892 82.5749 119.47 82.7417 120.194 82.7417C120.869 82.7417 121.378 82.6156 121.72 82.3633C122.07 82.1029 122.245 81.7651 122.245 81.3501Z" fill="white"/>
</svg>
