<svg width="34" height="34" viewBox="0 0 34 34" fill="none" xmlns="http://www.w3.org/2000/svg">
<path fill-rule="evenodd" clip-rule="evenodd" d="M10.5754 1.51025C12.2372 1.43375 12.767 1.41675 17 1.41675C21.233 1.41675 21.7628 1.43516 23.4232 1.51025C25.0835 1.58533 26.2168 1.85025 27.2085 2.23416C28.2469 2.62658 29.189 3.24 29.9682 4.03333C30.7615 4.81108 31.3735 5.75175 31.7645 6.79158C32.1498 7.78325 32.4133 8.91658 32.4898 10.5741C32.5663 12.2387 32.5833 12.7685 32.5833 17.0001C32.5833 21.2331 32.5649 21.7629 32.4898 23.4247C32.4148 25.0822 32.1498 26.2155 31.7645 27.2072C31.3735 28.2471 30.7605 29.1894 29.9682 29.9682C29.189 30.7616 28.2469 31.3736 27.2085 31.7646C26.2168 32.1499 25.0835 32.4134 23.426 32.4899C21.7628 32.5664 21.233 32.5834 17 32.5834C12.767 32.5834 12.2372 32.565 10.5754 32.4899C8.91792 32.4148 7.78458 32.1499 6.79292 31.7646C5.75297 31.3735 4.81075 30.7605 4.03183 29.9682C3.23904 29.19 2.62553 28.2483 2.23408 27.2086C1.85017 26.2169 1.58667 25.0836 1.51017 23.4261C1.43367 21.7615 1.41667 21.2317 1.41667 17.0001C1.41667 12.7671 1.43508 12.2372 1.51017 10.5769C1.58525 8.91658 1.85017 7.78325 2.23408 6.79158C2.62611 5.75186 3.24009 4.81011 4.03325 4.03191C4.81106 3.23929 5.75234 2.62579 6.7915 2.23416C7.78317 1.85025 8.9165 1.58675 10.574 1.51025H10.5754ZM23.2971 4.31525C21.6537 4.24016 21.1608 4.22458 17 4.22458C12.8393 4.22458 12.3463 4.24016 10.7029 4.31525C9.18283 4.38466 8.35833 4.63825 7.80867 4.85216C7.08192 5.1355 6.562 5.47125 6.01658 6.01666C5.49957 6.51965 5.10167 7.13198 4.85208 7.80875C4.63817 8.35841 4.38458 9.18291 4.31517 10.703C4.24008 12.3463 4.2245 12.8393 4.2245 17.0001C4.2245 21.1608 4.24008 21.6538 4.31517 23.2972C4.38458 24.8172 4.63817 25.6417 4.85208 26.1914C5.10142 26.8672 5.4995 27.4806 6.01658 27.9835C6.5195 28.5006 7.13292 28.8987 7.80867 29.148C8.35833 29.3619 9.18283 29.6155 10.7029 29.6849C12.3463 29.76 12.8378 29.7756 17 29.7756C21.1622 29.7756 21.6537 29.76 23.2971 29.6849C24.8172 29.6155 25.6417 29.3619 26.1913 29.148C26.9181 28.8647 27.438 28.5289 27.9834 27.9835C28.5005 27.4806 28.8986 26.8672 29.1479 26.1914C29.3618 25.6417 29.6154 24.8172 29.6848 23.2972C29.7599 21.6538 29.7755 21.1608 29.7755 17.0001C29.7755 12.8393 29.7599 12.3463 29.6848 10.703C29.6154 9.18291 29.3618 8.35841 29.1479 7.80875C28.8646 7.082 28.5288 6.56208 27.9834 6.01666C27.4804 5.49968 26.8681 5.1018 26.1913 4.85216C25.6417 4.63825 24.8172 4.38466 23.2971 4.31525ZM15.0096 21.804C16.1212 22.2667 17.359 22.3292 18.5115 21.9807C19.664 21.6322 20.6598 20.8944 21.3288 19.8933C21.9978 18.8921 22.2984 17.6898 22.1794 16.4916C22.0604 15.2935 21.5291 14.1738 20.6763 13.3238C20.1326 12.7805 19.4752 12.3645 18.7515 12.1057C18.0277 11.8469 17.2556 11.7518 16.4907 11.8273C15.7258 11.9027 14.9871 12.1468 14.3279 12.542C13.6686 12.9372 13.1052 13.4736 12.6782 14.1127C12.2511 14.7518 11.9711 15.4776 11.8582 16.2379C11.7454 16.9981 11.8025 17.774 12.0254 18.5096C12.2484 19.2451 12.6317 19.9221 13.1477 20.4918C13.6637 21.0614 14.2996 21.5096 15.0096 21.804ZM11.3362 11.3362C12.08 10.5925 12.963 10.0025 13.9348 9.59993C14.9066 9.19739 15.9481 8.99021 17 8.99021C18.0519 8.99021 19.0934 9.19739 20.0652 9.59993C21.037 10.0025 21.92 10.5925 22.6638 11.3362C23.4076 12.08 23.9976 12.963 24.4002 13.9348C24.8027 14.9066 25.0099 15.9482 25.0099 17.0001C25.0099 18.052 24.8027 19.0935 24.4002 20.0653C23.9976 21.0371 23.4076 21.9201 22.6638 22.6639C21.1617 24.1661 19.1243 25.01 17 25.01C14.8757 25.01 12.8383 24.1661 11.3362 22.6639C9.83403 21.1618 8.99013 19.1244 8.99013 17.0001C8.99013 14.8757 9.83403 12.8384 11.3362 11.3362ZM26.7863 10.1831C26.9706 10.0092 27.1182 9.80013 27.2203 9.56821C27.3223 9.33629 27.3768 9.08625 27.3805 8.8329C27.3842 8.57954 27.337 8.32802 27.2418 8.09323C27.1465 7.85843 27.0051 7.64514 26.8259 7.46597C26.6468 7.2868 26.4335 7.1454 26.1987 7.05015C25.9639 6.95489 25.7124 6.90771 25.459 6.91141C25.2057 6.9151 24.9556 6.96959 24.7237 7.07165C24.4918 7.17371 24.2827 7.32127 24.1088 7.50558C23.7707 7.86404 23.5856 8.34017 23.5927 8.8329C23.5999 9.32563 23.7989 9.79616 24.1473 10.1446C24.4958 10.4931 24.9663 10.692 25.459 10.6992C25.9517 10.7064 26.4279 10.5212 26.7863 10.1831Z" fill="white"/>
</svg>
