<svg width="48" height="48" viewBox="0 0 48 48" fill="none" xmlns="http://www.w3.org/2000/svg">
<path d="M29.8815 21.2107C29.445 19.9117 28.779 19.4467 28.0088 19.4467C27.0698 19.4467 25.9748 20.136 24.945 20.85C24.3323 21.276 21.96 23.8957 20.6663 23.8957C20.518 23.8997 20.3723 23.8567 20.25 23.7727C18.987 22.8787 20.5695 18.9832 20.5695 17.115C20.5695 15.3067 20.241 14.616 19.7378 14.616C18.3465 14.616 15.621 19.9132 14.8613 21.4417C14.6468 21.873 14.3475 22.0432 14.0003 22.0432C12.786 22.0432 10.98 19.9545 10.1505 19.6342C10.0268 19.584 9.8948 19.5571 9.76126 19.5547C8.37526 19.5547 8.40526 23.0025 8.42626 23.9175C9.18376 23.7105 9.89401 23.583 10.515 23.583C12.0803 23.583 13.0755 24.3937 12.816 26.7735C12.7575 27.3082 12.4193 29.0122 12.9728 29.388C13.0616 29.4458 13.1661 29.4748 13.272 29.4712C13.9103 29.4712 14.9213 28.6845 15.297 28.4445C15.8025 28.1205 16.3328 27.8835 16.7813 27.8835C17.3213 27.8835 17.7428 28.2262 17.8635 29.175C17.9355 29.7367 17.6603 31.8742 18.2108 32.2155C18.2915 32.2641 18.3842 32.2893 18.4785 32.2882C19.4948 32.2882 21.2295 29.7487 22.0148 29.4577C22.3834 29.3212 22.7736 29.2519 23.1668 29.253C24.2115 29.253 25.2053 29.7142 26.2215 30.1042C26.3925 30.1702 26.532 30.1987 26.6453 30.1987C27.2595 30.1987 27.081 29.346 26.5553 28.8007C25.7895 28.0027 24.5745 28.353 23.7225 27.7815C22.6403 27.0555 24.147 25.5967 24.732 25.164C25.4303 24.6465 26.9783 23.8147 28.2135 23.8147C28.7858 23.8147 29.2905 23.9932 29.6115 24.4627C30.2183 25.35 29.2088 26.4705 29.4638 27.4665C29.571 27.8797 29.8305 28.0222 30.138 28.0222C30.7928 28.0222 31.6605 27.3757 31.7205 27.3142C32.1196 26.8996 32.549 26.5153 33.0053 26.1645C30.7253 25.6597 30.5318 23.1502 29.8815 21.2107Z" fill="white"/>
<path d="M11.187 19.3418C11.187 19.3418 13.1587 21.081 14.001 21.081C14.1622 21.081 14.283 21.0173 14.3392 20.8628C15.5512 17.544 18.114 13.7513 19.7872 13.7513C20.517 13.7513 21.0772 14.4735 21.2812 16.2735C21.5452 18.6038 19.9335 22.1355 20.7082 22.9403C20.7251 22.9573 20.7454 22.9707 20.7677 22.9795C20.7901 22.9882 20.814 22.9923 20.838 22.9913C21.7087 22.9913 25.149 18.5858 28.0935 18.5858C28.3201 18.5852 28.5459 18.6132 28.7655 18.669C31.4182 19.3493 30.2685 23.8725 32.4217 25.1648C32.7783 25.3819 33.187 25.4983 33.6045 25.5015C34.398 25.5015 35.1225 25.0493 35.2957 24.114C35.733 21.753 28.2345 17.1765 32.2912 17.1765C32.8732 17.1765 33.693 17.2703 34.8075 17.4788C35.4712 12.9308 35.2395 11.67 34.6455 11.67C33.9682 11.67 32.8192 13.3073 31.983 13.5893C31.9588 13.5974 31.9335 13.6017 31.908 13.602C31.4302 13.602 31.4467 11.8815 30.6292 11.8815C30.1012 11.8815 29.226 12.5993 27.6465 14.9588C26.832 16.176 26.2222 16.6575 25.7407 16.6575C23.9092 16.6575 23.961 9.65176 21.7635 9.65176C21.3195 9.65176 20.784 9.93751 20.1225 10.6238C19.107 11.6783 18.159 12.0518 17.2717 12.0518C15.111 12.0518 13.3207 9.83251 11.853 9.83251C11.274 9.83251 10.7437 10.1783 10.2622 11.1443C9.2655 13.1475 12.6405 13.044 11.187 19.3418ZM13.7692 20.2433C13.3747 20.0663 12.6742 19.5923 12.0172 19.0523C12.1387 18.4575 12.2137 17.9235 12.2572 17.4315C12.4425 17.121 12.6705 16.815 12.9487 16.5315C14.082 15.3758 15.534 15.0105 16.2457 15.678C15.231 17.0768 14.3377 18.789 13.7692 20.2433ZM30.4275 17.2628C30.057 18.1395 30.7777 19.065 31.881 20.2748C31.804 20.3589 31.7145 20.4305 31.6155 20.487C31.5104 20.5453 31.3963 20.5856 31.278 20.6063C30.927 19.4213 30.3382 18.2835 28.9485 17.9273C28.7443 17.8774 28.5359 17.8465 28.326 17.835C27.9495 16.611 28.1242 15.4613 28.8375 15.0638C29.6235 14.6235 30.7695 15.252 31.5517 16.4715C31.116 16.5548 30.642 16.7558 30.4275 17.2628Z" fill="white"/>
<path d="M36.0052 24.1305C35.841 25.2038 37.401 25.3958 36.6555 27.1538C36.273 28.053 33.0337 30.126 33.2722 30.5798C33.6255 31.2435 34.05 31.5015 34.4797 31.5015C35.3302 31.5015 36.1965 30.492 36.5452 29.6175C37.002 28.4738 37.1197 25.4715 38.2327 24.915C38.421 24.8198 38.607 24.7778 38.7907 24.7778C39.8895 24.7778 40.9162 26.2635 41.9062 26.4645C42.1477 25.389 41.9752 24.273 42.2212 23.1915C38.0422 23.139 44.5432 17.4278 40.8285 15.0975C40.6282 14.9723 40.4602 14.916 40.3132 14.9168C39.144 14.9168 39.4162 18.4973 36.462 18.4973C36.2265 18.4973 35.9692 18.474 35.6895 18.4245C34.6087 18.234 33.8625 18.1455 33.3742 18.1455C30.5287 18.147 36.4665 21.1403 36.0052 24.1305Z" fill="white"/>
<path d="M43.4077 18.5198C43.5143 17.8755 43.5199 17.2187 43.4242 16.5728C43.1558 14.7735 41.7495 13.3095 40.29 13.3088C39.7913 13.3088 38.5972 13.5165 38.0325 15.2888C37.6527 15.1301 37.2694 14.98 36.8827 14.8388C37.2165 12.5925 37.0912 11.0528 36.492 10.266C36.3475 10.0692 36.1585 9.90923 35.9404 9.79923C35.7224 9.68924 35.4815 9.63228 35.2373 9.633C34.4528 9.633 33.5715 10.158 32.4765 11.2808L32.4368 11.1743C32.2043 10.5458 31.8157 9.49425 30.7732 9.49425C30.0607 9.49425 29.1173 9.93376 27.1343 12.8243C26.5592 12.782 25.9833 12.7512 25.407 12.732L25.3005 12.345C24.6818 10.0733 23.9797 7.49925 22.002 7.4985H22.0012C21.195 7.4985 20.3468 7.97325 19.407 8.949C18.7072 9.6765 18.015 10.0298 17.2897 10.0298C16.4055 10.0298 15.5003 9.52275 14.6243 9.033C13.7385 8.538 12.8235 8.02575 11.877 8.02575C10.755 8.02575 9.843 8.7135 9.0885 10.1288C8.22675 11.7458 8.706 12.8138 9.1695 13.8473C9.372 14.298 9.58425 14.7758 9.735 15.3623C4.71225 17.5193 1.5 20.7855 1.5 24.4478C1.5 34.5975 11.574 46.5 24 46.5C36.4268 46.5 46.5 34.5975 46.5 24.4478C46.5 22.2833 45.3615 20.2613 43.4077 18.5198ZM24 44.9708C14.5417 44.9708 6.58875 37.5488 3.9435 29.7765C7.66275 33.5933 15.2445 36.2085 24 36.2085C32.7555 36.2085 40.3358 33.5933 44.055 29.7773C41.4098 37.548 33.4575 44.9708 24 44.9708ZM32.3512 31.8563C32.1705 32.4248 31.6087 33.2888 30.912 33.897C29.8365 34.8353 28.5255 35.037 27.9007 34.3815C27.3757 33.828 27.462 32.7998 28.065 31.8375C29.2995 29.8665 31.0695 29.4345 31.8375 29.8245C31.8225 29.8785 31.8015 29.9303 31.791 29.988C31.6845 30.5873 31.8772 31.2158 32.3512 31.8563ZM43.8773 22.2203C43.143 22.2203 42.7898 24.2543 42.7373 25.533C42.6908 26.6603 42.3652 27.036 41.8995 27.036C41.229 27.036 40.2675 26.259 39.4282 25.8195C39.1597 25.6785 38.9535 25.6163 38.7915 25.6163C38.3107 25.6163 38.223 26.178 38.058 26.973C37.7798 28.3148 37.4482 29.7068 36.7207 30.864C36.1867 31.7138 35.361 32.3048 34.5337 32.3048C33.99 32.3048 33.4455 32.0498 32.982 31.446C31.1595 29.0775 35.163 28.593 35.961 26.9693C36.423 26.0303 36.2752 25.7033 35.8522 25.7033C35.0198 25.7033 33.1215 26.9738 32.73 27.333C32.0385 27.9653 31.2442 28.8968 30.2722 28.8968C30.108 28.8968 29.9377 28.8698 29.7622 28.8105C28.731 28.4625 28.5862 27.165 28.8045 26.2013C28.986 25.3958 29.4038 24.672 28.3268 24.6308C28.2888 24.6293 28.2508 24.6285 28.2127 24.6285C27.519 24.6285 26.8103 24.8565 26.181 25.1415C25.4175 25.488 24.3615 26.1075 24.0847 27.0173C23.9985 27.297 25.8503 27.5888 26.1383 27.6998C27.5813 28.2638 28.287 30.9795 26.7772 30.9795C26.5822 30.9795 26.3505 30.9338 26.0783 30.8348C25.1318 30.4815 24.18 29.982 23.1893 29.982C22.8638 29.982 22.5345 30.036 22.2008 30.1673C21.5093 30.4388 21.1313 31.2135 20.5868 31.6988C19.7812 32.4218 19.0688 32.8103 18.5093 32.8103C17.7383 32.8103 17.2582 32.0723 17.2275 30.4515C17.2005 29.1345 16.9478 28.7078 16.539 28.7078C15.81 28.7078 14.586 30.069 13.2712 30.1695C13.233 30.1718 13.1962 30.1733 13.161 30.1733C11.4068 30.1733 12.0893 26.838 12.2257 25.8098C12.375 24.6885 11.6985 24.2903 10.6567 24.2903C9.486 24.2903 7.85775 24.7928 6.42375 25.338C6.49275 25.3995 6.56475 25.4535 6.63075 25.521C7.94325 26.8305 8.3745 28.5578 7.59675 29.376C6.8175 30.1928 5.12325 29.793 3.81225 28.482C2.50125 27.171 2.0685 25.4438 2.84775 24.6263C3.513 23.9235 4.54725 24.1598 5.427 24.6285C6.57675 24.2423 7.743 23.9055 7.716 23.3625C7.51125 19.2555 8.676 18.489 9.57525 18.4898C9.91803 18.4983 10.2533 18.5918 10.551 18.762C11.3625 13.5353 8.31825 13.1805 9.7485 10.4963C10.4257 9.2265 11.133 8.793 11.8785 8.793C13.4813 8.793 15.2595 10.7963 17.2913 10.7963C18.1305 10.7963 19.0132 10.4535 19.944 9.48675C20.7787 8.61975 21.4508 8.265 22.0035 8.265C24.4762 8.26575 24.5423 15.3675 25.956 15.3675C26.2275 15.3675 26.5493 15.1058 26.946 14.4818C29.0198 11.2253 30.123 10.26 30.774 10.26C31.7235 10.26 31.7108 12.3135 32.3385 12.3135C32.4675 12.3135 32.625 12.2258 32.823 12.015C33.8647 10.9058 34.6665 10.398 35.238 10.398C36.5858 10.398 36.6525 13.2188 35.5545 17.613C35.5545 17.613 35.7998 17.6753 36.159 17.6753C36.9248 17.6753 38.205 17.394 38.706 15.636C39.0218 14.529 39.636 14.0745 40.2915 14.0745C41.3265 14.0745 42.4627 15.207 42.684 16.6883C43.0868 19.3935 41.3025 21.3098 41.442 22.1258C41.466 22.2705 41.5373 22.3275 41.6438 22.3275C42.0435 22.3275 42.9412 21.5138 43.725 21.5138C44.3092 21.5138 44.8312 21.9675 45.0322 23.553C44.5732 22.5923 44.1908 22.2203 43.8773 22.2203Z" fill="white"/>
</svg>
