<svg width="48" height="48" viewBox="0 0 48 48" fill="none" xmlns="http://www.w3.org/2000/svg">
<path d="M45.2528 8.08199C44.8578 7.68693 44.3888 7.37366 43.8726 7.16015C43.3564 6.94664 42.8031 6.83708 42.2445 6.83774C41.8148 6.83774 41.3843 6.90224 40.971 7.03199C41.2546 6.12269 41.2254 5.14457 40.8879 4.25384C40.5504 3.36311 39.9242 2.61115 39.1093 2.11803C38.2944 1.62491 37.3377 1.41908 36.3921 1.5334C35.4465 1.64773 34.5664 2.07562 33.8925 2.74874C31.5128 5.12849 33.2685 8.08274 33.0855 9.57824C33.0233 10.0875 32.2665 11.1045 31.3613 12.1627C28.347 9.51899 25.3605 7.61924 23.9048 7.97249C23.0775 8.17349 20.946 9.89774 18.5018 12.1545L37.8623 27.222C39.0668 25.794 39.8918 24.6487 40.026 24.0945C40.3868 22.6072 38.3993 19.521 35.6663 16.4415C36.723 15.5887 37.755 14.9122 38.3753 14.9122L38.4218 14.9137C38.499 14.904 38.5785 14.9002 38.6625 14.9002C39.5415 14.9002 40.809 15.3675 42.153 15.3675C43.1888 15.3675 44.2695 15.09 45.2528 14.1067C45.6484 13.7112 45.9622 13.2415 46.1763 12.7247C46.3904 12.2078 46.5006 11.6538 46.5006 11.0944C46.5006 10.5349 46.3904 9.98094 46.1763 9.46407C45.9622 8.94721 45.6484 8.47757 45.2528 8.08199ZM23.1503 10.2547L23.9003 9.50474L24.6503 10.2547L23.901 11.0047L23.1503 10.2547ZM24.8063 15.0337L24.0563 14.2837L24.8063 13.533L25.5563 14.283L24.8063 15.0337ZM25.7753 12.5047L24.6503 11.3797L25.7753 10.2547L26.9003 11.3797L25.7753 12.5047ZM28.212 15.6075L27.462 14.8575L28.212 14.1075L28.962 14.8575L28.212 15.6075ZM44.1923 13.047C43.6245 13.6147 42.9953 13.8682 42.153 13.8682C41.5568 13.8682 40.9373 13.7452 40.338 13.626C39.7545 13.5105 39.2025 13.401 38.6625 13.401C38.5568 13.401 38.457 13.4047 38.3595 13.4137C37.362 13.4227 36.024 14.2177 34.6388 15.3247C33.9407 14.5873 33.2206 13.871 32.4795 13.1767C33.7733 11.6467 34.485 10.497 34.575 9.76124C34.6575 9.08849 34.5203 8.39549 34.374 7.66199C34.0463 6.01199 33.9105 4.85249 34.953 3.80924C35.209 3.55207 35.5133 3.34814 35.8485 3.20924C36.1838 3.07035 36.5432 2.99923 36.906 2.99999C37.2686 2.9993 37.6278 3.07046 37.9627 3.20936C38.2977 3.34826 38.6018 3.55215 38.8575 3.80924C39.585 4.53674 39.8453 5.60099 39.5385 6.58574C39.457 6.84709 39.4486 7.12576 39.5142 7.39155C39.5797 7.65734 39.7168 7.90012 39.9105 8.09358C40.1042 8.28705 40.3471 8.42381 40.613 8.48906C40.8788 8.55431 41.1575 8.54555 41.4188 8.46374C41.6863 8.38024 41.965 8.33776 42.2453 8.33774C42.981 8.33774 43.6725 8.62424 44.193 9.14249C44.7091 9.66121 44.9987 10.3632 44.9986 11.0949C44.9984 11.8266 44.7085 12.5285 44.1923 13.047Z" fill="white"/>
<path d="M7.974 23.904C7.62 25.3605 9.51975 28.3478 12.1635 31.362C11.1053 32.2665 10.0883 33.0233 9.579 33.0855C9.49888 33.0953 9.41822 33.1001 9.3375 33.0998C8.4585 33.0998 7.191 32.6325 5.84775 32.6325C4.812 32.6325 3.732 32.91 2.74875 33.8933C2.07465 34.5667 1.6459 35.4469 1.5311 36.3928C1.41629 37.3387 1.62206 38.2959 2.11549 39.111C2.60891 39.9262 3.36149 40.5523 4.25281 40.8893C5.14414 41.2262 6.12272 41.2545 7.032 40.9695C6.79975 41.7115 6.77495 42.5028 6.9603 43.2578C7.14565 44.0128 7.53408 44.7027 8.0835 45.2528C8.47874 45.6487 8.94827 45.9627 9.46514 46.1767C9.98202 46.3907 10.5361 46.5006 11.0955 46.5C11.6552 46.5006 12.2094 46.3907 12.7265 46.1767C13.2436 45.9626 13.7134 45.6487 14.109 45.2528C16.4888 42.8715 14.733 39.9165 14.9145 38.421C14.8793 37.8068 15.567 36.7493 16.4415 35.6663C19.5218 38.4 22.608 40.3868 24.096 40.026C24.7298 39.8723 26.1345 38.8185 27.8565 37.3193L10.6815 20.145C9.18075 21.8655 8.127 23.2695 7.974 23.904ZM15.327 34.641C14.2343 36.0105 13.4468 37.3365 13.4145 38.3393C13.3568 38.9805 13.488 39.6405 13.626 40.3373C13.9545 41.988 14.091 43.149 13.0485 44.1923C12.7924 44.4491 12.4879 44.6527 12.1527 44.7913C11.8175 44.93 11.4582 45.0009 11.0955 45C10.6625 45.0004 10.2355 44.8988 9.84907 44.7034C9.46266 44.508 9.12773 44.2243 8.87141 43.8753C8.6151 43.5263 8.44463 43.1218 8.3738 42.6946C8.30297 42.2674 8.33379 41.8296 8.46375 41.4165C8.54538 41.1554 8.55393 40.8769 8.48848 40.6113C8.42304 40.3457 8.28609 40.1031 8.0925 39.9098C7.89922 39.7159 7.6565 39.5787 7.39072 39.5132C7.12495 39.4476 6.84628 39.4561 6.585 39.5378C6.3169 39.621 6.03774 39.6633 5.757 39.663C5.39502 39.664 5.03643 39.5933 4.70188 39.4551C4.36734 39.3168 4.06346 39.1137 3.80775 38.8575C3.28725 38.3348 3 37.6418 3 36.9053C3 36.1688 3.28725 35.4758 3.80925 34.953C4.377 34.3853 5.0055 34.1318 5.847 34.1318C6.4425 34.1318 7.062 34.2548 7.6605 34.3733C8.244 34.4888 8.796 34.599 9.336 34.599C9.483 34.599 9.6255 34.59 9.75975 34.5743C10.4955 34.4843 11.6453 33.7725 13.1753 32.4788C13.8703 33.2212 14.5879 33.9423 15.327 34.641ZM13.461 24.9758L14.211 25.7258L13.461 26.4758L12.711 25.7258L13.461 24.9758ZM11.7105 24.6945L10.9605 25.4438L10.2105 24.6945L10.9605 23.9445L11.7105 24.6945Z" fill="white"/>
<path d="M11.2733 19.4715L29.001 36.2985C31.7483 33.8017 34.9913 30.5197 37.2525 27.933L17.2778 13.3035C15.192 15.294 13.0065 17.535 11.2733 19.4715ZM16.5143 19.1407L15.7643 18.3907L16.5143 17.6407L17.2643 18.3907L16.5143 19.1407ZM21.7643 22.6185L21.0143 23.3685L20.2643 22.6185L21.0135 21.8685L21.7643 22.6185ZM19.1393 20.3685L20.2643 21.4935L19.1393 22.6185L18.0143 21.4935L19.1393 20.3685Z" fill="white"/>
</svg>
