<svg width="48" height="48" viewBox="0 0 48 48" fill="none" xmlns="http://www.w3.org/2000/svg">
<path d="M12.8 14C12.12 15.1 12 15.94 12 16.76C12 18.3 14 22 14 24C14 25.9 13.2 27 13.2 27H10.2C10.2 27 11 25.9 11 24C11 22 9.00001 18.3 9.00001 16.76C9.00001 15.94 9.12001 15.1 9.80001 14H12.8V14ZM22.8 14C22.12 15.1 22 15.94 22 16.76C22 18.3 24 22 24 24C24 25.9 23.2 27 23.2 27H26.2C26.2 27 27 25.9 27 24C27 22 25 18.3 25 16.76C25 15.94 25.12 15.1 25.8 14H22.8V14ZM16.3 14C15.62 15.1 15.5 15.94 15.5 16.76C15.5 18.3 17.5 22.02 17.5 24C17.5 25.9 16.7 27 16.7 27H19.7C19.7 27 20.5 25.9 20.5 24C20.5 22 18.5 18.3 18.5 16.76C18.5 15.94 18.62 15.1 19.3 14H16.3V14ZM37.2 4C34.12 4 31.58 6.32 31.24 9.3L29.06 30H8.02001C6.82001 30 5.84001 31.06 6.02001 32.26C7.06001 38.92 12.78 44 19.5 44C26.46 44 32.18 38.54 32.92 31.54L35.22 9.8C35.32 8.78 36.16 8 37.2 8C38.3 8 39.2 8.9 39.2 10C39.2 10.6 39 12.5 39 12.5L42.94 13C42.94 13 43.2 10.88 43.2 10C43.2 6.7 40.5 4 37.2 4V4ZM19.5 40C15.62 40 12.16 37.54 10.64 34H28.22C26.78 37.56 23.38 40 19.5 40Z" fill="white"/>
</svg>
